<?xml version="1.0" encoding="utf-8"?>
<!-- Generator: Adobe Illustrator 18.1.1, SVG Export Plug-In . SVG Version: 6.00 Build 0)  -->
<svg version="1.1" id="Layer_1" xmlns="http://www.w3.org/2000/svg" xmlns:xlink="http://www.w3.org/1999/xlink" x="0px" y="0px"
	 viewBox="0 0 210.8 105.4" enable-background="new 0 0 210.8 105.4" xml:space="preserve">
<path fill="#5D833A" d="M55.3,30.6c0-0.5,0.3-0.9,0.9-0.9h13.1c5.1,0,7.9,2.8,7.9,7.9v22.5c0,5.1-2.7,7.9-7.9,7.9H56.2
	c-0.6,0-0.9-0.3-0.9-0.9V30.6z M67.7,60.7c1.4,0,2.2-0.7,2.2-2.2V39.2c0-1.5-0.8-2.2-2.2-2.2h-5v23.8H67.7z"/>
<path fill="#5D833A" d="M81.5,30.6c0-0.5,0.3-0.9,0.9-0.9h13.1c5.1,0,7.9,2.8,7.9,7.9v22.5c0,5.1-2.7,7.9-7.9,7.9H82.4
	c-0.6,0-0.9-0.3-0.9-0.9V30.6z M94,60.7c1.4,0,2.2-0.7,2.2-2.2V39.2c0-1.5-0.8-2.2-2.2-2.2h-5v23.8H94z"/>
<path fill="#2F4921" d="M136.6,30.6c0-0.5,0.3-0.9,0.9-0.9h13.1c5.1,0,7.9,2.7,7.9,7.9v10.7c0,5.1-2.7,7.8-7.9,7.9l-6.9,0.1v10.9
	c0,0.5-0.3,0.9-0.9,0.9l-5.4-0.1c-0.5,0-0.9-0.3-0.9-0.9V30.6z M149.2,49.1c1.5,0,2.2-0.8,2.2-2.2v-8c0-1.4-0.7-2.2-2.2-2.2
	l-5.5,0.1v12.3L149.2,49.1z"/>
<path fill="#2F4921" d="M181.8,29.7c0.6,0,0.9,0.3,0.9,0.9v5.5c0,0.5-0.3,0.9-0.9,0.9h-6.3v30.2c0,0.6-0.3,0.9-0.9,0.9h-5.7
	c-0.5,0-0.9-0.3-0.9-0.9V36.9h-6.3c-0.5,0-0.9-0.3-0.9-0.9v-5.5c0-0.5,0.3-0.9,0.9-0.9H181.8z"/>
<path fill="#2F4921" d="M133,67l-9.1-36.5c-0.1-0.5-0.4-0.8-0.9-0.8h-7.6c-0.5,0-0.8,0.2-0.9,0.8L105.4,67c-0.2,0.6,0.1,0.9,0.7,0.9
	h5.4c0.5,0,0.8-0.3,0.9-0.8l1.7-6.9h10.3l1.7,6.9c0.1,0.5,0.4,0.8,0.9,0.8h5.3C132.9,68,133.1,67.6,133,67z M124.6,53.8
	c-0.1,0.1-0.3,0.1-0.3,0.1H114c0,0-0.2,0-0.3-0.1c-0.1-0.1,0-0.4,0-0.4l2.6-4.6h-1.2c0,0-0.2,0-0.2-0.1c-0.1-0.1,0-0.3,0-0.3
	l2.5-4.5h-0.8c0,0-0.1,0-0.1-0.1c-0.1,0,0-0.2,0-0.2l2.6-4.6c0,0,0-0.1,0.2-0.1c0.1,0,0.2,0.1,0.2,0.1l2.6,4.6c0,0,0,0.1,0,0.2
	c-0.1,0.1-0.1,0.1-0.1,0.1h-0.8l2.6,4.5c0,0,0.1,0.2,0,0.3c-0.1,0.1-0.2,0.1-0.2,0.1h-1.2l2.6,4.6C124.7,53.5,124.8,53.7,124.6,53.8
	z"/>
<path fill="#5D833A" d="M52,67L43,30.5c-0.1-0.5-0.4-0.8-0.9-0.8h-7.6c-0.5,0-0.8,0.2-0.9,0.8L24.4,67c-0.2,0.6,0.1,0.9,0.7,0.9h5.4
	c0.5,0,0.8-0.3,0.9-0.8l1.7-6.9h10.3l1.7,6.9c0.1,0.5,0.4,0.8,0.9,0.8h5.3C51.9,68,52.2,67.6,52,67z M43.7,53.8
	C43.6,54,43.4,54,43.4,54H33c0,0-0.2,0-0.3-0.1c-0.1-0.1,0-0.4,0-0.4l2.6-4.6h-1.2c0,0-0.2,0-0.2-0.1c-0.1-0.1,0-0.3,0-0.3l2.5-4.5
	h-0.8c0,0-0.1,0-0.1-0.1c-0.1,0,0-0.2,0-0.2l2.6-4.6c0,0,0-0.1,0.2-0.1c0.1,0,0.2,0.1,0.2,0.1l2.6,4.6c0,0,0,0.1,0,0.2
	C40.9,44,40.8,44,40.8,44H40l2.6,4.5c0,0,0.1,0.2,0,0.3c-0.1,0.1-0.2,0.1-0.2,0.1h-1.2l2.6,4.6C43.8,53.5,43.8,53.7,43.7,53.8z"/>
<g>
	<path fill="#5D833A" d="M26.4,77.6c0-0.3,0.1-0.7,0.2-1c0.1-0.3,0.3-0.7,0.6-0.9c0.2-0.3,0.6-0.5,0.9-0.7c0.4-0.2,0.8-0.3,1.2-0.3
		c0.5,0,1,0.1,1.4,0.3c0.4,0.2,0.7,0.5,0.9,0.9l-1,0.7c-0.1-0.2-0.1-0.3-0.2-0.4c-0.1-0.1-0.2-0.2-0.3-0.2c-0.1-0.1-0.2-0.1-0.4-0.1
		c-0.1,0-0.2,0-0.4,0c-0.3,0-0.5,0.1-0.7,0.2c-0.2,0.1-0.3,0.2-0.5,0.4c-0.1,0.2-0.2,0.3-0.3,0.6c-0.1,0.2-0.1,0.4-0.1,0.6
		c0,0.2,0,0.4,0.1,0.7c0.1,0.2,0.2,0.4,0.3,0.6c0.1,0.2,0.3,0.3,0.5,0.4c0.2,0.1,0.4,0.1,0.6,0.1c0.1,0,0.2,0,0.4,0
		c0.1,0,0.2-0.1,0.4-0.1c0.1-0.1,0.2-0.1,0.3-0.2c0.1-0.1,0.2-0.2,0.2-0.4l1.1,0.6c-0.1,0.2-0.2,0.4-0.4,0.6
		c-0.2,0.2-0.4,0.3-0.6,0.4c-0.2,0.1-0.5,0.2-0.7,0.3c-0.2,0.1-0.5,0.1-0.7,0.1c-0.4,0-0.8-0.1-1.1-0.3c-0.3-0.2-0.6-0.4-0.9-0.7
		c-0.3-0.3-0.4-0.6-0.6-1C26.5,78.4,26.4,78,26.4,77.6z"/>
	<path fill="#5D833A" d="M36.4,79.4c0.2,0,0.4,0,0.6-0.1c0.2-0.1,0.3-0.2,0.4-0.4c0.1-0.2,0.2-0.3,0.2-0.5c0-0.2,0.1-0.4,0.1-0.6
		v-2.9H39v2.9c0,0.4-0.1,0.8-0.2,1.1c-0.1,0.3-0.3,0.6-0.5,0.9c-0.2,0.3-0.5,0.5-0.8,0.6c-0.3,0.1-0.7,0.2-1.1,0.2
		c-0.5,0-0.9-0.1-1.2-0.2s-0.6-0.4-0.8-0.6c-0.2-0.3-0.4-0.6-0.4-0.9c-0.1-0.3-0.1-0.7-0.1-1.1v-2.9h1.3v2.9c0,0.2,0,0.4,0.1,0.6
		c0,0.2,0.1,0.4,0.2,0.5c0.1,0.2,0.2,0.3,0.4,0.4C36,79.4,36.2,79.4,36.4,79.4z"/>
	<path fill="#5D833A" d="M45.1,76.5c0,0-0.1-0.1-0.2-0.1c-0.1-0.1-0.2-0.1-0.4-0.2c-0.1-0.1-0.3-0.1-0.5-0.2c-0.2,0-0.3-0.1-0.5-0.1
		c-0.5,0-0.7,0.2-0.7,0.5c0,0.1,0,0.2,0.1,0.2c0.1,0.1,0.1,0.1,0.2,0.2c0.1,0.1,0.2,0.1,0.4,0.1c0.2,0,0.3,0.1,0.5,0.1
		c0.3,0.1,0.5,0.2,0.7,0.2c0.2,0.1,0.4,0.2,0.6,0.3s0.3,0.3,0.4,0.5c0.1,0.2,0.1,0.4,0.1,0.7c0,0.3-0.1,0.6-0.2,0.8
		c-0.1,0.2-0.3,0.4-0.5,0.5c-0.2,0.1-0.4,0.2-0.7,0.3c-0.3,0.1-0.5,0.1-0.8,0.1c-0.2,0-0.4,0-0.7,0c-0.2,0-0.4-0.1-0.6-0.1
		c-0.2-0.1-0.4-0.1-0.6-0.2c-0.2-0.1-0.4-0.2-0.5-0.3l0.6-1.2c0,0,0.1,0.1,0.2,0.2c0.1,0.1,0.3,0.2,0.4,0.2c0.2,0.1,0.4,0.1,0.6,0.2
		c0.2,0.1,0.4,0.1,0.7,0.1c0.5,0,0.7-0.1,0.7-0.4c0-0.1,0-0.2-0.1-0.3c-0.1-0.1-0.2-0.1-0.3-0.2c-0.1-0.1-0.3-0.1-0.4-0.2
		c-0.2,0-0.4-0.1-0.6-0.2c-0.3-0.1-0.5-0.2-0.7-0.3c-0.2-0.1-0.4-0.2-0.5-0.3c-0.1-0.1-0.2-0.3-0.3-0.4c-0.1-0.2-0.1-0.4-0.1-0.6
		c0-0.3,0.1-0.6,0.2-0.8c0.1-0.2,0.3-0.4,0.5-0.6c0.2-0.2,0.4-0.3,0.7-0.4c0.3-0.1,0.5-0.1,0.8-0.1c0.2,0,0.4,0,0.6,0.1
		c0.2,0,0.4,0.1,0.6,0.1c0.2,0.1,0.3,0.1,0.5,0.2c0.2,0.1,0.3,0.2,0.4,0.2L45.1,76.5z"/>
	<path fill="#5D833A" d="M52.6,76h-1.8v4.6h-1.3V76h-1.8v-1.2h4.8V76z"/>
	<path fill="#5D833A" d="M57.2,80.6c-0.4,0-0.8-0.1-1.2-0.3s-0.7-0.4-0.9-0.7c-0.2-0.3-0.4-0.6-0.6-0.9c-0.1-0.4-0.2-0.7-0.2-1.1
		c0-0.4,0.1-0.7,0.2-1.1c0.1-0.4,0.3-0.7,0.6-0.9c0.3-0.3,0.6-0.5,0.9-0.6c0.4-0.2,0.7-0.2,1.2-0.2c0.4,0,0.8,0.1,1.2,0.3
		s0.7,0.4,0.9,0.7c0.2,0.3,0.4,0.6,0.6,0.9C60,77,60,77.3,60,77.7c0,0.4-0.1,0.7-0.2,1.1c-0.1,0.4-0.3,0.7-0.6,0.9
		c-0.3,0.3-0.6,0.5-0.9,0.6S57.6,80.6,57.2,80.6z M55.7,77.7c0,0.2,0,0.4,0.1,0.6c0.1,0.2,0.2,0.4,0.3,0.6c0.1,0.2,0.3,0.3,0.5,0.4
		c0.2,0.1,0.4,0.1,0.6,0.1c0.3,0,0.5-0.1,0.7-0.2c0.2-0.1,0.3-0.2,0.5-0.4c0.1-0.2,0.2-0.4,0.3-0.6c0.1-0.2,0.1-0.4,0.1-0.6
		c0-0.2,0-0.4-0.1-0.6c-0.1-0.2-0.2-0.4-0.3-0.6c-0.1-0.2-0.3-0.3-0.5-0.4C57.6,76,57.4,76,57.2,76c-0.3,0-0.5,0.1-0.7,0.2
		c-0.2,0.1-0.3,0.2-0.5,0.4c-0.1,0.2-0.2,0.3-0.3,0.6C55.7,77.3,55.7,77.5,55.7,77.7z"/>
	<path fill="#5D833A" d="M67,80.6v-3.5l-1.3,2.5H65l-1.3-2.5v3.5h-1.3v-5.8h1.4l1.5,3l1.5-3h1.4v5.8H67z"/>
	<path fill="#5D833A" d="M71,80.6v-5.8h1.3v5.8H71z"/>
	<path fill="#5D833A" d="M74.8,79.6l3-3.6h-2.9v-1.2h4.4v1l-2.9,3.6h2.9v1.2h-4.6V79.6z"/>
	<path fill="#5D833A" d="M85.9,79.4v1.2h-4.1v-5.8h4V76h-2.6v1.1h2.3v1.1h-2.3v1.2H85.9z"/>
	<path fill="#5D833A" d="M95.3,76.5c0,0-0.1-0.1-0.2-0.1c-0.1-0.1-0.2-0.1-0.4-0.2c-0.1-0.1-0.3-0.1-0.5-0.2c-0.2,0-0.3-0.1-0.5-0.1
		c-0.5,0-0.7,0.2-0.7,0.5c0,0.1,0,0.2,0.1,0.2c0.1,0.1,0.1,0.1,0.2,0.2c0.1,0.1,0.2,0.1,0.4,0.1c0.2,0,0.3,0.1,0.5,0.1
		c0.3,0.1,0.5,0.2,0.7,0.2c0.2,0.1,0.4,0.2,0.6,0.3c0.2,0.1,0.3,0.3,0.4,0.5c0.1,0.2,0.1,0.4,0.1,0.7c0,0.3-0.1,0.6-0.2,0.8
		c-0.1,0.2-0.3,0.4-0.5,0.5c-0.2,0.1-0.4,0.2-0.7,0.3c-0.3,0.1-0.5,0.1-0.8,0.1c-0.2,0-0.4,0-0.6,0c-0.2,0-0.4-0.1-0.6-0.1
		c-0.2-0.1-0.4-0.1-0.6-0.2c-0.2-0.1-0.4-0.2-0.5-0.3l0.6-1.2c0,0,0.1,0.1,0.2,0.2c0.1,0.1,0.3,0.2,0.4,0.2c0.2,0.1,0.4,0.1,0.6,0.2
		c0.2,0.1,0.4,0.1,0.7,0.1c0.5,0,0.7-0.1,0.7-0.4c0-0.1,0-0.2-0.1-0.3c-0.1-0.1-0.2-0.1-0.3-0.2c-0.1-0.1-0.3-0.1-0.4-0.2
		c-0.2,0-0.4-0.1-0.6-0.2c-0.3-0.1-0.5-0.2-0.7-0.3c-0.2-0.1-0.4-0.2-0.5-0.3c-0.1-0.1-0.2-0.3-0.3-0.4s-0.1-0.4-0.1-0.6
		c0-0.3,0.1-0.6,0.2-0.8c0.1-0.2,0.3-0.4,0.5-0.6c0.2-0.2,0.4-0.3,0.7-0.4c0.3-0.1,0.5-0.1,0.8-0.1c0.2,0,0.4,0,0.6,0.1
		c0.2,0,0.4,0.1,0.6,0.1c0.2,0.1,0.3,0.1,0.5,0.2c0.2,0.1,0.3,0.2,0.4,0.2L95.3,76.5z"/>
	<path fill="#5D833A" d="M100.9,79.4c0.2,0,0.4,0,0.6-0.1c0.2-0.1,0.3-0.2,0.4-0.4c0.1-0.2,0.2-0.3,0.2-0.5c0-0.2,0.1-0.4,0.1-0.6
		v-2.9h1.3v2.9c0,0.4-0.1,0.8-0.2,1.1c-0.1,0.3-0.3,0.6-0.5,0.9c-0.2,0.3-0.5,0.5-0.8,0.6c-0.3,0.1-0.7,0.2-1.1,0.2
		c-0.5,0-0.9-0.1-1.2-0.2s-0.6-0.4-0.8-0.6c-0.2-0.3-0.4-0.6-0.4-0.9c-0.1-0.3-0.1-0.7-0.1-1.1v-2.9h1.3v2.9c0,0.2,0,0.4,0.1,0.6
		c0,0.2,0.1,0.4,0.2,0.5c0.1,0.2,0.2,0.3,0.4,0.4C100.5,79.4,100.7,79.4,100.9,79.4z"/>
	<path fill="#5D833A" d="M109.6,76.5c0,0-0.1-0.1-0.2-0.1c-0.1-0.1-0.2-0.1-0.4-0.2c-0.1-0.1-0.3-0.1-0.5-0.2
		c-0.2,0-0.3-0.1-0.5-0.1c-0.5,0-0.7,0.2-0.7,0.5c0,0.1,0,0.2,0.1,0.2c0.1,0.1,0.1,0.1,0.2,0.2c0.1,0.1,0.2,0.1,0.4,0.1
		c0.2,0,0.3,0.1,0.5,0.1c0.3,0.1,0.5,0.2,0.7,0.2c0.2,0.1,0.4,0.2,0.6,0.3c0.2,0.1,0.3,0.3,0.4,0.5c0.1,0.2,0.1,0.4,0.1,0.7
		c0,0.3-0.1,0.6-0.2,0.8c-0.1,0.2-0.3,0.4-0.5,0.5c-0.2,0.1-0.4,0.2-0.7,0.3c-0.3,0.1-0.5,0.1-0.8,0.1c-0.2,0-0.4,0-0.6,0
		c-0.2,0-0.4-0.1-0.6-0.1c-0.2-0.1-0.4-0.1-0.6-0.2c-0.2-0.1-0.4-0.2-0.5-0.3l0.6-1.2c0,0,0.1,0.1,0.2,0.2c0.1,0.1,0.3,0.2,0.4,0.2
		c0.2,0.1,0.4,0.1,0.6,0.2c0.2,0.1,0.4,0.1,0.7,0.1c0.5,0,0.7-0.1,0.7-0.4c0-0.1,0-0.2-0.1-0.3c-0.1-0.1-0.2-0.1-0.3-0.2
		c-0.1-0.1-0.3-0.1-0.4-0.2c-0.2,0-0.4-0.1-0.6-0.2c-0.3-0.1-0.5-0.2-0.7-0.3c-0.2-0.1-0.4-0.2-0.5-0.3c-0.1-0.1-0.2-0.3-0.3-0.4
		s-0.1-0.4-0.1-0.6c0-0.3,0.1-0.6,0.2-0.8c0.1-0.2,0.3-0.4,0.5-0.6c0.2-0.2,0.4-0.3,0.7-0.4c0.3-0.1,0.5-0.1,0.8-0.1
		c0.2,0,0.4,0,0.6,0.1c0.2,0,0.4,0.1,0.6,0.1c0.2,0.1,0.3,0.1,0.5,0.2c0.2,0.1,0.3,0.2,0.4,0.2L109.6,76.5z"/>
	<path fill="#5D833A" d="M117.1,76h-1.8v4.6H114V76h-1.8v-1.2h4.8V76z"/>
	<path fill="#5D833A" d="M120.4,74.8h1.2l2.1,5.8h-1.4l-0.4-1.3h-1.8l-0.4,1.3h-1.4L120.4,74.8z M121.6,78.4l-0.7-2l-0.7,2H121.6z"
		/>
	<path fill="#5D833A" d="M125.9,80.6v-5.8h1.3v5.8H125.9z"/>
	<path fill="#5D833A" d="M131.3,77.3v3.3h-1.3v-5.8h1l2.7,3.4v-3.4h1.3v5.8h-1.1L131.3,77.3z"/>
	<path fill="#5D833A" d="M139.3,74.8h1.2l2.1,5.8h-1.4l-0.4-1.3H139l-0.4,1.3h-1.4L139.3,74.8z M140.6,78.4l-0.7-2l-0.7,2H140.6z"/>
	<path fill="#5D833A" d="M149.6,79.1c0,0.2-0.1,0.5-0.2,0.6c-0.1,0.2-0.2,0.3-0.4,0.5c-0.2,0.1-0.4,0.2-0.6,0.3
		c-0.2,0.1-0.5,0.1-0.8,0.1h-2.8v-5.8h3.2c0.2,0,0.4,0,0.5,0.1c0.2,0.1,0.3,0.2,0.4,0.3c0.1,0.1,0.2,0.3,0.3,0.5
		c0.1,0.2,0.1,0.4,0.1,0.5c0,0.3-0.1,0.5-0.2,0.8c-0.1,0.2-0.3,0.4-0.6,0.6c0.3,0.1,0.6,0.3,0.8,0.5
		C149.5,78.4,149.6,78.7,149.6,79.1z M146.1,75.9v1.2h1.3c0.1,0,0.3,0,0.4-0.1c0.1-0.1,0.2-0.2,0.2-0.5c0-0.2-0.1-0.3-0.2-0.4
		c-0.1-0.1-0.2-0.2-0.4-0.2H146.1z M148.2,78.8c0-0.2-0.1-0.3-0.2-0.5c-0.1-0.1-0.2-0.2-0.4-0.2h-1.5v1.3h1.5c0.2,0,0.3-0.1,0.4-0.2
		C148.1,79.2,148.2,79,148.2,78.8z"/>
	<path fill="#5D833A" d="M152,80.6v-5.8h1.3v5.8H152z"/>
	<path fill="#5D833A" d="M156,80.6v-5.8h1.3v4.6h2.8v1.2H156z"/>
	<path fill="#5D833A" d="M162.4,80.6v-5.8h1.3v5.8H162.4z"/>
	<path fill="#5D833A" d="M170.9,76h-1.8v4.6h-1.3V76H166v-1.2h4.8V76z"/>
	<path fill="#5D833A" d="M174,74.8l1.2,2.6l1.3-2.6h1.5l-2.1,3.8v2h-1.3v-2l-2-3.8H174z"/>
	<path fill="#5D833A" d="M179.4,80.6v-1.3h1.1v1.3H179.4z"/>
</g>
</svg>
